<svg version="1" xmlns="http://www.w3.org/2000/svg" width="933.333" height="933.333" viewBox="0 0 700.000000 700.000000"><path d="M331.8 2c-35.6 7.6-63.3 36.1-69.7 71.7-1.3 6.9-1.6 22.9-.7 28.3 5.4 29.6 21.7 52.5 47.6 66.5l5.5 3-.1 54.5c0 30-.3 56-.6 57.8-2.4 13-14.1 23.5-31 27.8-9.6 2.5-9 2.5-61.3 2.8-44.5.4-53.8.7-61.5 2-1.4.3-4.1.7-6 1-14.7 2.2-36.7 11.7-49.8 21.6-26.2 19.7-44.5 52.4-48.8 87-.3 2.5-.7 5.4-.9 6.5-.2 1.1-.4 23.3-.4 49.2L54 529l-3.6 1.5c-5.2 2.2-16.1 9.7-21.8 15C16.5 556.9 7.1 572.8 2.8 589 1 595.8.6 600.2.6 611c0 11.8.4 14.7 2.9 23.4 9.1 31.7 31.3 53.4 64.2 62.8 10.8 3.1 32.1 3.1 43.6 0 48.1-13 76.1-60 64.6-108.2-.6-2.5-1.4-5.4-1.9-6.5-.4-1.1-1.4-3.6-2.1-5.5-1.3-3.7-8.6-17.1-9.7-18-.4-.3-2-2.3-3.6-4.4-6-8-17.7-17.6-27.4-22.6-5.6-2.8-6.2-3.4-6.3-6.3-.4-16.7 0-86.5.5-91.1.9-8.1 5.1-20.1 9.2-26.2 6.5-9.8 19.4-19 29.4-20.8 1.9-.3 4.6-.9 6-1.2 1.4-.3 24.8-.7 52-.9 27.2-.2 51.1-.5 53-.8 1.9-.3 5.8-.9 8.5-1.2 6.2-.8 20.5-4 26.5-5.8l4.6-1.5-.1 76.1v76.1l-7.1 4.1c-18.1 10.3-29.6 22.7-38.5 41.3-6.5 13.4-9.6 34.9-7.4 49.7 5 33.1 28.8 61.3 60.7 72 16.7 5.5 37.9 5.5 55.3 0 36.6-11.7 61.8-46.4 61.7-85-.1-32.4-18.8-63.6-46.8-78.2l-7-3.6v-76.1c.1-41.9.3-76.1.6-76 .3.1 3 .8 6.1 1.7 10 2.9 21.9 5.1 34.4 6.3 2.8.3 26.6.7 53 .8 49 .4 53.5.7 63.3 4.5 17.4 6.9 29.4 24.2 31.7 45.6.7 5.7.9 37.7.6 83.1l-.1 10-6.2 3.4c-11.7 6.2-22.6 15.8-30.9 27-10.7 14.6-16.8 34.6-16.3 53.5.5 22.7 7.7 40.4 23.9 59.3 1.1 1.3 4.9 4.7 8.5 7.6 17.8 14.3 36.6 20.8 59 20.2 23.9-.7 44-9.3 60.4-26 12.8-12.8 18-21.7 23.1-39.2 3.3-11 4.2-29.6 2-39.1-.8-3.3-1.6-7.1-1.9-8.4-.7-3.9-4.5-12.9-8.3-19.9-8.1-14.7-22.1-28.2-37.5-36.1l-4.8-2.4-.1-45.5c0-51.6-.1-53.7-3.3-68.5-5.3-24.9-17.2-47-34.6-64.5-18.1-18.1-37.6-28.2-64-32.9-12.5-2.2-14.1-2.3-70.5-2.6-24.2-.1-45.6-.5-47.5-.9-14.1-2.6-23.1-6.2-29.6-11.9-4.6-4-8.8-11.8-10.2-18.7-.4-2.5-.8-28.6-.8-58l.1-53.4 7.1-4.1c3.8-2.2 9.1-5.4 11.6-7.2 5.6-4 15.5-14.7 20.5-22.2 3.6-5.4 10-19.1 10.7-22.8.2-1 .9-3.6 1.4-5.8 3.8-14.5 3-33.3-2-48-10.6-31-36-53.3-68.3-60-7.6-1.6-26.1-1.3-34.7.5zm31.7 37.8c13 3.8 24.8 13 31.2 24.3 18.7 33.2-4.3 74.7-42.3 76.5-20.3.9-38.3-9.5-47.7-27.6-5-9.4-5.8-12.8-5.8-24.1-.1-9 1.2-14.3 5.3-22.4 7.3-14.4 19.8-23.9 36.3-27.8 4.1-1 18.2-.4 23 1.1zM99.7 560.4c24.8 5.1 42.8 28.7 41 53.6-1 12.9-7.5 26.6-16 33.9-1 .9-3.1 2.6-4.5 3.8-3.2 2.7-13.6 7.9-17.7 8.9-7.1 1.6-19.1 1.5-25.5-.1-38.7-9.9-51.9-57.2-24-85.6 12.9-13.1 29.2-18.2 46.7-14.5zm260.6-.3c2.3.5 4.9 1.2 5.7 1.6.8.3 2 .7 2.6.8 3.3.8 13 7.4 17.7 12.1 5.4 5.5 10.9 14.4 12.8 20.7 10.1 34-15.5 67.6-50.6 66.5-13.7-.4-25.6-5.6-35-15.3-11.8-12-16.8-27.8-14.2-44.5 3.1-20.1 21.5-38.9 40.7-41.7 1.9-.3 3.6-.6 3.8-.8.7-.6 12.7-.2 16.5.6zm265.5 1.4c15.1 4.6 28.3 17.6 34 33.4 2.6 7.2 2.2 25.9-.6 33.2-7.9 20-26.3 33.2-47.3 33.8-14.5.4-26.6-4.6-37.5-15.4-12.5-12.4-17.6-29.2-14-46.3 3.9-18.6 18.4-34 37.1-39.3 7.3-2.1 20.6-1.8 28.3.6z"/></svg>